REM COMMENT "Generated by IcecastMetadataRecorder https://github.com/eshaz/icecast-metadata-js"
REM BR "16"
REM METAINT "64"
REM DATE "2020-07-29T21:16:11.222Z"
TITLE "isics-all"
FILE "isics-all.mp3" WAVE
  TRACK 1 AUDIO
    TITLE "2020-07-29T21:30:27.350Z TO:14002 Region 4 Interoperability Tac 42 FROM:10970"
    INDEX 01 14:16:10
  TRACK 2 AUDIO
    TITLE "2020-07-29T21:30:29.430Z TO:24631 Dallas County Fire/EMS Operations FROM:2520002"
    INDEX 01 14:18:16
  TRACK 3 AUDIO
    TITLE "2020-07-29T21:30:32.950Z TO:24631 Dallas County Fire/EMS Operations FROM:UNKNOWN"
    INDEX 01 14:21:55
  TRACK 4 AUDIO
    TITLE "2020-07-29T21:30:34.326Z TO:1101 Polk County - Westcom Law Enforcement 1 FROM:1394"
    INDEX 01 14:23:08
  TRACK 5 AUDIO
    TITLE "2020-07-29T21:30:36.438Z TO:24631 Dallas County Fire/EMS Operations FROM:2520002"
    INDEX 01 14:25:16
  TRACK 6 AUDIO
    TITLE "2020-07-29T21:30:40.630Z TO:1101 Polk County - Westcom Law Enforcement 1 FROM:1004"
    INDEX 01 14:29:31
  TRACK 7 AUDIO
    TITLE "2020-07-29T21:30:42.742Z TO:24631 Dallas County Fire/EMS Operations FROM:2559981"
    INDEX 01 14:31:39
  TRACK 8 AUDIO
    TITLE "2020-07-29T21:30:44.150Z TO:1101 Polk County - Westcom Law Enforcement 1 FROM:5095"
    INDEX 01 14:32:70
  TRACK 9 AUDIO
    TITLE "2020-07-29T21:30:48.342Z TO:1101 Polk County - Westcom Law Enforcement 1 FROM:1004"
    INDEX 01 14:37:09
  TRACK 10 AUDIO
    TITLE "END"
    INDEX 01 14:39:15